<mxfile host="app.diagrams.net" modified="2021-07-11T12:52:27.550Z" agent="5.0 (Windows NT 10.0; Win64; x64) AppleWebKit/537.36 (KHTML, like Gecko) Chrome/91.0.4472.124 Safari/537.36" etag="0e8a3Stq7TubJm7rw8Sg" version="14.8.5" type="github">
  <diagram id="xpwXJV_NrRu8wcvEEFKE" name="Page-1">
    <mxGraphModel dx="868" dy="1550" grid="1" gridSize="10" guides="1" tooltips="1" connect="1" arrows="1" fold="1" page="1" pageScale="1" pageWidth="850" pageHeight="1100" math="0" shadow="0">
      <root>
        <mxCell id="0" />
        <mxCell id="1" parent="0" />
        <mxCell id="jyq4KqrySVWzgWhNvjoU-31" style="edgeStyle=orthogonalEdgeStyle;rounded=0;orthogonalLoop=1;jettySize=auto;html=1;entryX=0;entryY=0.5;entryDx=0;entryDy=0;" edge="1" parent="1" source="jyq4KqrySVWzgWhNvjoU-30" target="jyq4KqrySVWzgWhNvjoU-29">
          <mxGeometry relative="1" as="geometry">
            <Array as="points">
              <mxPoint x="510" y="80" />
            </Array>
          </mxGeometry>
        </mxCell>
        <mxCell id="jyq4KqrySVWzgWhNvjoU-35" style="edgeStyle=orthogonalEdgeStyle;rounded=0;orthogonalLoop=1;jettySize=auto;html=1;entryX=0;entryY=0;entryDx=0;entryDy=52.5;entryPerimeter=0;" edge="1" parent="1" source="jyq4KqrySVWzgWhNvjoU-30" target="jyq4KqrySVWzgWhNvjoU-28">
          <mxGeometry relative="1" as="geometry" />
        </mxCell>
        <mxCell id="jyq4KqrySVWzgWhNvjoU-30" value="" style="rounded=1;whiteSpace=wrap;html=1;" vertex="1" parent="1">
          <mxGeometry x="440" y="140" width="150" height="300" as="geometry" />
        </mxCell>
        <mxCell id="jyq4KqrySVWzgWhNvjoU-13" value="" style="edgeStyle=orthogonalEdgeStyle;rounded=0;orthogonalLoop=1;jettySize=auto;html=1;" edge="1" parent="1" source="jyq4KqrySVWzgWhNvjoU-14" target="jyq4KqrySVWzgWhNvjoU-23">
          <mxGeometry relative="1" as="geometry" />
        </mxCell>
        <mxCell id="jyq4KqrySVWzgWhNvjoU-14" value="User with Buy/Sell" style="rounded=1;whiteSpace=wrap;html=1;" vertex="1" parent="1">
          <mxGeometry x="160" y="160" width="120" height="60" as="geometry" />
        </mxCell>
        <mxCell id="jyq4KqrySVWzgWhNvjoU-15" style="edgeStyle=orthogonalEdgeStyle;rounded=0;orthogonalLoop=1;jettySize=auto;html=1;entryX=0.5;entryY=0;entryDx=0;entryDy=0;" edge="1" parent="1" source="jyq4KqrySVWzgWhNvjoU-16" target="jyq4KqrySVWzgWhNvjoU-23">
          <mxGeometry relative="1" as="geometry" />
        </mxCell>
        <mxCell id="jyq4KqrySVWzgWhNvjoU-16" value="User with Buy/Sell" style="rounded=1;whiteSpace=wrap;html=1;" vertex="1" parent="1">
          <mxGeometry x="160" y="250" width="120" height="60" as="geometry" />
        </mxCell>
        <mxCell id="jyq4KqrySVWzgWhNvjoU-17" style="edgeStyle=orthogonalEdgeStyle;rounded=0;orthogonalLoop=1;jettySize=auto;html=1;entryX=0.5;entryY=0;entryDx=0;entryDy=0;" edge="1" parent="1" source="jyq4KqrySVWzgWhNvjoU-18" target="jyq4KqrySVWzgWhNvjoU-23">
          <mxGeometry relative="1" as="geometry" />
        </mxCell>
        <mxCell id="jyq4KqrySVWzgWhNvjoU-18" value="User with Buy/Sell" style="rounded=1;whiteSpace=wrap;html=1;" vertex="1" parent="1">
          <mxGeometry x="160" y="370" width="120" height="60" as="geometry" />
        </mxCell>
        <mxCell id="jyq4KqrySVWzgWhNvjoU-19" value="..." style="text;html=1;strokeColor=none;fillColor=none;align=center;verticalAlign=middle;whiteSpace=wrap;rounded=0;rotation=-90;" vertex="1" parent="1">
          <mxGeometry x="200" y="330" width="40" height="20" as="geometry" />
        </mxCell>
        <mxCell id="jyq4KqrySVWzgWhNvjoU-20" style="edgeStyle=orthogonalEdgeStyle;rounded=0;orthogonalLoop=1;jettySize=auto;html=1;entryX=0;entryY=0.5;entryDx=0;entryDy=0;" edge="1" parent="1" source="jyq4KqrySVWzgWhNvjoU-23" target="jyq4KqrySVWzgWhNvjoU-24">
          <mxGeometry relative="1" as="geometry" />
        </mxCell>
        <mxCell id="jyq4KqrySVWzgWhNvjoU-21" style="edgeStyle=orthogonalEdgeStyle;rounded=0;orthogonalLoop=1;jettySize=auto;html=1;entryX=0;entryY=0.5;entryDx=0;entryDy=0;" edge="1" parent="1" source="jyq4KqrySVWzgWhNvjoU-23" target="jyq4KqrySVWzgWhNvjoU-25">
          <mxGeometry relative="1" as="geometry" />
        </mxCell>
        <mxCell id="jyq4KqrySVWzgWhNvjoU-22" style="edgeStyle=orthogonalEdgeStyle;rounded=0;orthogonalLoop=1;jettySize=auto;html=1;entryX=0;entryY=0.5;entryDx=0;entryDy=0;" edge="1" parent="1" source="jyq4KqrySVWzgWhNvjoU-23" target="jyq4KqrySVWzgWhNvjoU-26">
          <mxGeometry relative="1" as="geometry" />
        </mxCell>
        <mxCell id="jyq4KqrySVWzgWhNvjoU-23" value="LB" style="rounded=1;whiteSpace=wrap;html=1;rotation=-90;" vertex="1" parent="1">
          <mxGeometry x="235" y="265" width="270" height="60" as="geometry" />
        </mxCell>
        <mxCell id="jyq4KqrySVWzgWhNvjoU-24" value="Exchange &lt;br&gt;App Server" style="rounded=1;whiteSpace=wrap;html=1;" vertex="1" parent="1">
          <mxGeometry x="450" y="160" width="120" height="60" as="geometry" />
        </mxCell>
        <mxCell id="jyq4KqrySVWzgWhNvjoU-25" value="Exchange&lt;br&gt;App Server" style="rounded=1;whiteSpace=wrap;html=1;" vertex="1" parent="1">
          <mxGeometry x="450" y="250" width="120" height="60" as="geometry" />
        </mxCell>
        <mxCell id="jyq4KqrySVWzgWhNvjoU-26" value="Exchange&lt;br&gt;App Server" style="rounded=1;whiteSpace=wrap;html=1;" vertex="1" parent="1">
          <mxGeometry x="450" y="370" width="120" height="60" as="geometry" />
        </mxCell>
        <mxCell id="jyq4KqrySVWzgWhNvjoU-27" value="..." style="text;html=1;strokeColor=none;fillColor=none;align=center;verticalAlign=middle;whiteSpace=wrap;rounded=0;rotation=-90;" vertex="1" parent="1">
          <mxGeometry x="490" y="330" width="40" height="20" as="geometry" />
        </mxCell>
        <mxCell id="jyq4KqrySVWzgWhNvjoU-36" style="edgeStyle=orthogonalEdgeStyle;rounded=0;orthogonalLoop=1;jettySize=auto;html=1;entryX=1;entryY=0.5;entryDx=0;entryDy=0;" edge="1" parent="1" source="jyq4KqrySVWzgWhNvjoU-28" target="jyq4KqrySVWzgWhNvjoU-30">
          <mxGeometry relative="1" as="geometry">
            <Array as="points">
              <mxPoint x="740" y="290" />
              <mxPoint x="740" y="290" />
            </Array>
          </mxGeometry>
        </mxCell>
        <mxCell id="jyq4KqrySVWzgWhNvjoU-28" value="User Wallet DB" style="shape=cylinder3;whiteSpace=wrap;html=1;boundedLbl=1;backgroundOutline=1;size=15;" vertex="1" parent="1">
          <mxGeometry x="788" y="237" width="60" height="80" as="geometry" />
        </mxCell>
        <mxCell id="jyq4KqrySVWzgWhNvjoU-32" style="edgeStyle=orthogonalEdgeStyle;rounded=0;orthogonalLoop=1;jettySize=auto;html=1;" edge="1" parent="1" source="jyq4KqrySVWzgWhNvjoU-29">
          <mxGeometry relative="1" as="geometry">
            <mxPoint x="510" y="140" as="targetPoint" />
          </mxGeometry>
        </mxCell>
        <mxCell id="jyq4KqrySVWzgWhNvjoU-29" value="Dynamic Fee &lt;br&gt;Cache" style="rounded=1;whiteSpace=wrap;html=1;" vertex="1" parent="1">
          <mxGeometry x="600" y="50" width="120" height="60" as="geometry" />
        </mxCell>
        <mxCell id="jyq4KqrySVWzgWhNvjoU-34" value="" style="edgeStyle=orthogonalEdgeStyle;rounded=0;orthogonalLoop=1;jettySize=auto;html=1;" edge="1" parent="1" source="jyq4KqrySVWzgWhNvjoU-33" target="jyq4KqrySVWzgWhNvjoU-29">
          <mxGeometry relative="1" as="geometry" />
        </mxCell>
        <mxCell id="jyq4KqrySVWzgWhNvjoU-33" value="Fee Service" style="rounded=1;whiteSpace=wrap;html=1;" vertex="1" parent="1">
          <mxGeometry x="600" y="-40" width="120" height="60" as="geometry" />
        </mxCell>
      </root>
    </mxGraphModel>
  </diagram>
</mxfile>
